<svg width="20" height="12" viewBox="0 0 20 12" fill="none" xmlns="http://www.w3.org/2000/svg">
<path fill-rule="evenodd" clip-rule="evenodd" d="M0.469425 0.968875C0.539094 0.899031 0.621857 0.843616 0.712975 0.805806C0.804093 0.767997 0.901774 0.748535 1.00043 0.748535C1.09908 0.748535 1.19676 0.767997 1.28788 0.805806C1.37899 0.843616 1.46176 0.899031 1.53143 0.968875L10.0004 9.43938L18.4694 0.968875C18.5392 0.899144 18.6219 0.843829 18.713 0.80609C18.8042 0.768352 18.9018 0.748928 19.0004 0.748928C19.099 0.748928 19.1967 0.768352 19.2878 0.80609C19.3789 0.843829 19.4617 0.899144 19.5314 0.968875C19.6012 1.03861 19.6565 1.12139 19.6942 1.2125C19.7319 1.30361 19.7514 1.40126 19.7514 1.49988C19.7514 1.59849 19.7319 1.69614 19.6942 1.78725C19.6565 1.87836 19.6012 1.96114 19.5314 2.03088L10.5314 11.0309C10.4618 11.1007 10.379 11.1561 10.2879 11.1939C10.1968 11.2318 10.0991 11.2512 10.0004 11.2512C9.90177 11.2512 9.80409 11.2318 9.71297 11.1939C9.62186 11.1561 9.53909 11.1007 9.46943 11.0309L0.469425 2.03088C0.39958 1.96121 0.344166 1.87844 0.306356 1.78733C0.268547 1.69621 0.249084 1.59853 0.249084 1.49988C0.249084 1.40122 0.268547 1.30354 0.306356 1.21243C0.344166 1.12131 0.39958 1.03854 0.469425 0.968875Z" fill="white"/>
</svg>
