<svg width="32" height="32" viewBox="0 0 32 32" fill="none" xmlns="http://www.w3.org/2000/svg">
<path d="M16 2.66663C12.642 2.72973 9.44601 4.12207 7.11312 6.53829C4.78022 8.9545 3.50084 12.1973 3.55556 15.5555V27.5555H8.17779C8.82228 27.5698 9.44616 27.3281 9.91269 26.8832C10.3792 26.4383 10.6504 25.8266 10.6667 25.1822V19.2622C10.6504 18.6177 10.3792 18.006 9.91269 17.5612C9.44616 17.1163 8.82228 16.8745 8.17779 16.8888H5.33334V15.5555C5.27853 12.6688 6.3706 9.87809 8.37011 7.79526C10.3696 5.71243 13.1134 4.50742 16 4.4444C18.8866 4.50742 21.6304 5.71243 23.6299 7.79526C25.6294 9.87809 26.7215 12.6688 26.6667 15.5555V16.8888H23.8222C23.1777 16.8745 22.5539 17.1163 22.0873 17.5612C21.6208 18.006 21.3497 18.6177 21.3333 19.2622V25.1911C21.352 25.834 21.6241 26.4434 22.0904 26.8863C22.5567 27.3293 23.1792 27.5699 23.8222 27.5555H28.4445V15.5555C28.4992 12.1973 27.2198 8.9545 24.8869 6.53829C22.554 4.12207 19.3581 2.72973 16 2.66663ZM8.17779 18.6666C8.35044 18.6541 8.52118 18.7093 8.6539 18.8205C8.78661 18.9316 8.87088 19.09 8.8889 19.2622V25.1911C8.87088 25.3632 8.78661 25.5216 8.6539 25.6328C8.52118 25.7439 8.35044 25.7991 8.17779 25.7866H5.33334V18.6666H8.17779ZM23.1111 25.1822V19.2622C23.1291 19.09 23.2134 18.9316 23.3461 18.8205C23.4788 18.7093 23.6496 18.6541 23.8222 18.6666H26.6667V25.7777H23.8222C23.6496 25.7902 23.4788 25.7351 23.3461 25.6239C23.2134 25.5128 23.1291 25.3543 23.1111 25.1822Z" fill="white"/>
</svg>
