<svg width="32" height="32" viewBox="0 0 32 32" fill="none" xmlns="http://www.w3.org/2000/svg">
<g clip-path="url(#clip0_1_264)">
<path d="M2 5.65588C3.77 4.91588 6.308 4.11788 8.776 3.86988C11.436 3.60188 13.692 3.99588 15 5.37388V24.8659C13.13 23.8059 10.76 23.6599 8.574 23.8799C6.214 24.1199 3.834 24.8019 2 25.5019V5.65588ZM17 5.37388C18.308 3.99588 20.564 3.60188 23.224 3.86988C25.692 4.11788 28.23 4.91588 30 5.65588V25.5019C28.164 24.8019 25.786 24.1179 23.426 23.8819C21.238 23.6599 18.87 23.8039 17 24.8659V5.37388ZM16 3.56588C14.03 1.87188 11.174 1.61988 8.574 1.87988C5.546 2.18588 2.49 3.22388 0.586 4.08988C0.411298 4.16934 0.263151 4.29739 0.159242 4.45875C0.0553334 4.62011 5.31428e-05 4.80796 0 4.99988L0 26.9999C4.6324e-05 27.1672 0.0420743 27.3318 0.122234 27.4787C0.202394 27.6256 0.318123 27.75 0.458822 27.8405C0.59952 27.9311 0.760689 27.9849 0.927567 27.997C1.09444 28.0091 1.2617 27.9792 1.414 27.9099C3.178 27.1099 6.02 26.1479 8.774 25.8699C11.592 25.5859 13.954 26.0439 15.22 27.6239C15.3137 27.7407 15.4324 27.8349 15.5674 27.8997C15.7024 27.9645 15.8503 27.9981 16 27.9981C16.1497 27.9981 16.2976 27.9645 16.4326 27.8997C16.5676 27.8349 16.6863 27.7407 16.78 27.6239C18.046 26.0439 20.408 25.5859 23.224 25.8699C25.98 26.1479 28.824 27.1099 30.586 27.9099C30.7383 27.9792 30.9056 28.0091 31.0724 27.997C31.2393 27.9849 31.4005 27.9311 31.5412 27.8405C31.6819 27.75 31.7976 27.6256 31.8778 27.4787C31.9579 27.3318 32 27.1672 32 26.9999V4.99988C31.9999 4.80796 31.9447 4.62011 31.8408 4.45875C31.7368 4.29739 31.5887 4.16934 31.414 4.08988C29.51 3.22388 26.454 2.18588 23.426 1.87988C20.826 1.61788 17.97 1.87188 16 3.56588Z" fill="white"/>
</g>
<defs>
<clipPath id="clip0_1_264">
<rect width="32" height="32" fill="white"/>
</clipPath>
</defs>
</svg>
