<svg width="24" height="24" viewBox="0 0 24 24" fill="none" xmlns="http://www.w3.org/2000/svg">
<path fill-rule="evenodd" clip-rule="evenodd" d="M11.975 0.0578654C15.0002 0.0553871 17.9151 1.19422 20.1374 3.24691C22.3596 5.2996 23.7258 8.11506 23.963 11.131C24.2002 14.1469 23.2909 17.1413 21.4169 19.5162C19.5428 21.891 16.8418 23.4715 13.8534 23.942V15.5454H16.6509L17.1856 12.073H13.8513V9.82018C13.8513 8.87098 14.3179 7.94181 15.8098 7.94181H17.3257V4.98808C17.3257 4.98808 17.1655 4.96005 16.9052 4.924C16.3159 4.84293 15.7232 4.78947 15.129 4.7638C14.9648 4.75724 14.8006 4.75391 14.6363 4.75379C11.8929 4.75379 10.0966 6.41588 10.0966 9.42768V12.073H7.04877V15.5454H10.1006V23.942C7.12204 23.4604 4.43356 21.876 2.56915 19.5037C0.704741 17.1314 -0.199199 14.1446 0.036863 11.1366C0.272925 8.12858 1.63172 5.31937 3.84337 3.26693C6.05502 1.21449 8.95773 0.0689602 11.975 0.0578654Z" fill="black"/>
</svg>
