<svg width="24" height="24" viewBox="0 0 24 24" fill="none" xmlns="http://www.w3.org/2000/svg">
<path fill-rule="evenodd" clip-rule="evenodd" d="M12 2.16302C15.204 2.16302 15.584 2.17502 16.85 2.23302C18.018 2.28702 18.654 2.48102 19.078 2.64702C19.598 2.83902 20.072 3.14502 20.458 3.54302C20.858 3.93102 21.164 4.40302 21.358 4.92502C21.522 5.34902 21.718 5.98502 21.77 7.15302C21.828 8.41902 21.84 8.79902 21.84 12.003C21.84 15.207 21.828 15.587 21.77 16.853C21.716 18.023 21.522 18.657 21.356 19.081C21.156 19.598 20.8503 20.0674 20.4583 20.4594C20.0664 20.8513 19.5969 21.157 19.08 21.357C18.656 21.521 18.02 21.717 16.852 21.771C15.586 21.829 15.206 21.841 12.002 21.841C8.798 21.841 8.418 21.829 7.152 21.771C5.982 21.717 5.348 21.523 4.924 21.357C4.40264 21.1646 3.93107 20.8578 3.544 20.459C3.144 20.073 2.838 19.599 2.644 19.079C2.48 18.655 2.284 18.019 2.232 16.851C2.174 15.585 2.162 15.205 2.162 12.001C2.162 8.79702 2.174 8.41702 2.232 7.15102C2.286 5.98102 2.48 5.34702 2.646 4.92302C2.838 4.40302 3.146 3.92902 3.544 3.54302C3.93 3.14302 4.404 2.83702 4.924 2.64302C5.348 2.47902 5.984 2.28302 7.152 2.23102C8.418 2.17302 8.798 2.16102 12.002 2.16102L12 2.16302ZM12 -0.000976562C8.742 -0.000976562 8.334 0.0130237 7.054 0.0710237C5.774 0.131024 4.902 0.335024 4.14 0.631024C3.34 0.931024 2.614 1.40502 2.014 2.01502C1.404 2.61502 0.932 3.34102 0.63 4.14102C0.334 4.90302 0.13 5.77702 0.072 7.05502C0.014 8.33102 0 8.74102 0 12.001C0 15.261 0.014 15.669 0.072 16.949C0.132 18.229 0.332 19.099 0.63 19.861C0.93 20.661 1.404 21.387 2.014 21.987C2.614 22.597 3.34 23.069 4.14 23.371C4.902 23.667 5.776 23.871 7.054 23.929C8.33 23.987 8.742 24.001 12 24.001C15.26 24.001 15.668 23.987 16.948 23.929C18.228 23.869 19.098 23.669 19.86 23.369C20.6571 23.0609 21.381 22.5898 21.9855 21.9857C22.5899 21.3816 23.0615 20.6579 23.37 19.861C23.666 19.099 23.87 18.225 23.928 16.947C23.986 15.671 24 15.261 24 12.001C24 8.74102 23.986 8.33502 23.928 7.05502C23.868 5.77502 23.668 4.90502 23.368 4.14302C23.068 3.34302 22.596 2.61702 21.986 2.01702C21.3862 1.40679 20.6608 0.934517 19.86 0.633024C19.098 0.337023 18.224 0.133023 16.946 0.0750234C15.67 0.0150234 15.26 0.00102353 12 0.00102353V-0.000976562ZM12 5.83902C11.1908 5.83902 10.3895 5.99841 9.6419 6.30808C8.8943 6.61775 8.215 7.07164 7.64281 7.64383C7.07061 8.21603 6.61672 8.89532 6.30705 9.64293C5.99739 10.3905 5.838 11.1918 5.838 12.001C5.838 12.8102 5.99739 13.6115 6.30705 14.3591C6.61672 15.1067 7.07061 15.786 7.64281 16.3582C8.215 16.9304 8.8943 17.3843 9.6419 17.694C10.3895 18.0036 11.1908 18.163 12 18.163C13.6148 18.1339 15.1536 17.472 16.2853 16.3198C17.4169 15.1675 18.051 13.6171 18.051 12.002C18.051 10.387 17.4169 8.8365 16.2853 7.68426C15.1536 6.53201 13.6148 5.87012 12 5.84102V5.83902ZM12 16.003C10.9389 16.003 9.9212 15.5815 9.17087 14.8312C8.42053 14.0808 7.999 13.0632 7.999 12.002C7.999 10.9409 8.42053 9.92322 9.17087 9.17289C9.9212 8.42256 10.9389 8.00102 12 8.00102C13.0609 8.00102 14.0783 8.42245 14.8284 9.1726C15.5786 9.92274 16 10.9402 16 12.001C16 13.0619 15.5786 14.0793 14.8284 14.8294C14.0783 15.5796 13.0609 16.001 12 16.001V16.003ZM19.846 5.59502C19.846 5.78413 19.8088 5.97138 19.7364 6.14609C19.664 6.3208 19.558 6.47954 19.4242 6.61326C19.2905 6.74697 19.1318 6.85304 18.9571 6.92541C18.7824 6.99778 18.5951 7.03502 18.406 7.03502C18.2169 7.03502 18.0296 6.99778 17.8549 6.92541C17.6802 6.85304 17.5215 6.74697 17.3878 6.61326C17.254 6.47954 17.148 6.3208 17.0756 6.14609C17.0032 5.97138 16.966 5.78413 16.966 5.59502C16.966 5.21311 17.1177 4.84684 17.3878 4.57679C17.6578 4.30674 18.0241 4.15502 18.406 4.15502C18.7879 4.15502 19.1542 4.30674 19.4242 4.57679C19.6943 4.84684 19.846 5.21311 19.846 5.59502Z" fill="black"/>
</svg>
