<svg width="24" height="26" viewBox="0 0 24 26" fill="none" xmlns="http://www.w3.org/2000/svg">
<path fill-rule="evenodd" clip-rule="evenodd" d="M20.451 21.5438C18.2055 23.7687 15.171 25.015 12.01 25.0107C10.7689 25.0107 9.57194 24.8226 8.44701 24.4723C8.93942 23.6716 9.66002 22.3805 9.92424 21.3437L10.6749 18.4873C11.0612 19.2379 12.2081 19.8705 13.4231 19.8705C17.0421 19.8705 19.6503 16.5397 19.6503 12.3982C19.6503 8.42495 16.4076 5.45849 12.2482 5.45849C7.05786 5.45849 4.30958 8.93738 4.30958 12.7245C4.30958 14.494 5.25036 16.6778 6.7516 17.3804C6.97779 17.4885 7.1079 17.4404 7.15594 17.2203L7.27203 16.7539L7.49222 15.8571C7.51015 15.7974 7.51219 15.7341 7.49815 15.6733C7.48411 15.6126 7.45447 15.5566 7.41215 15.5108C6.91974 14.9103 6.52341 13.8014 6.52341 12.7726C6.52341 10.1244 8.53108 7.56424 11.9499 7.56424C14.9064 7.56424 16.9721 9.5699 16.9721 12.4483C16.9721 15.691 15.3307 17.9429 13.197 17.9429C12.02 17.9429 11.1292 16.964 11.4155 15.769C11.5396 15.2586 11.7017 14.7342 11.8598 14.2238C12.1441 13.303 12.4143 12.4263 12.4143 11.7657C12.4143 10.845 11.9219 10.0743 10.893 10.0743C9.68804 10.0743 8.71924 11.3194 8.71924 12.9907C8.71924 14.0476 9.07353 14.7702 9.07353 14.7702C9.07353 14.7702 7.88855 19.8024 7.67237 20.7412C7.43217 21.778 7.52224 23.2372 7.63233 24.188C5.38296 23.3067 3.45148 21.7677 2.08996 19.7721C0.728444 17.7764 0.000107645 15.4166 6.83182e-08 13.0008C-0.00017992 11.3132 0.355284 9.64455 1.04322 8.10358C1.73115 6.56261 2.73612 5.18392 3.99259 4.05738C5.24907 2.93083 6.72886 2.08173 8.33549 1.56542C9.94212 1.04911 11.6395 0.87718 13.3171 1.06084C16.2605 1.38274 18.9807 2.78277 20.9532 4.99111C22.9257 7.19945 24.011 10.0598 23.9999 13.0208C24.002 14.6056 23.6893 16.1751 23.0801 17.6382C22.4709 19.1012 21.5772 20.4288 20.451 21.5438Z" fill="black"/>
</svg>
