<svg width="24" height="22" viewBox="0 0 24 22" fill="none" xmlns="http://www.w3.org/2000/svg">
<path d="M7.548 21.7893C16.604 21.7893 21.558 13.4853 21.558 6.2853C21.558 6.0493 21.558 5.8153 21.544 5.5813C22.5222 4.79311 23.3536 3.83847 24 2.7613C23.1103 3.19878 22.155 3.48793 21.172 3.6173C22.2 2.9373 22.97 1.8653 23.336 0.603295C22.3839 1.2324 21.3243 1.68119 20.21 1.9273C19.4977 1.07125 18.51 0.489384 17.416 0.281295C16.3402 0.0888968 15.231 0.292814 14.294 0.855295C13.3144 1.44893 12.5547 2.34548 12.13 3.4093C11.6817 4.51372 11.573 5.72679 11.818 6.8933C9.84302 6.77946 7.92043 6.21431 6.198 5.24129C4.41793 4.23281 2.87408 2.85535 1.67 1.2013C1.03727 2.42266 0.84648 3.8253 1.13 5.1713C1.414 6.5233 2.152 7.7033 3.194 8.4753C2.40255 8.44697 1.63232 8.21183 0.96 7.79329V7.8613C0.96 9.1213 1.354 10.3393 2.074 11.3113C2.794 12.2853 3.796 12.9533 4.91 13.2033C4.186 13.4213 3.424 13.4533 2.688 13.2953C3.002 14.3793 3.614 15.3253 4.44 16.0033C5.264 16.6833 6.26 17.0593 7.288 17.0793C5.544 18.5953 3.388 19.4193 1.172 19.4173C0.78 19.4173 0.39 19.3893 0 19.3373C2.19926 20.9198 4.83859 21.7744 7.548 21.7813" fill="black"/>
</svg>
